HIERARCHY
ROOT root
{
	OFFSET 0.000000 0.000000 0.000000
	CHANNELS 6 Xposition Yposition Zposition Zrotation Yrotation Xrotation
	JOINT lhip
	{
		OFFSET 0.058581 -0.082280 -0.017664
		CHANNELS 3 Zrotation Yrotation Xrotation
		JOINT lknee
		{
			OFFSET 0.043451 -0.386469 0.008037
			CHANNELS 3 Zrotation Yrotation Xrotation
			JOINT lankle
			{
				OFFSET -0.014790 -0.426874 -0.037428
				CHANNELS 3 Zrotation Yrotation Xrotation
				JOINT ltoe
				{
					OFFSET 0.041054 -0.060286 0.122042
					CHANNELS 3 Zrotation Yrotation Xrotation
					End Site
					{
						OFFSET 0.000000 0.000000 0.000000
					}
				}
			}
		}
	}
	JOINT rhip
	{
		OFFSET -0.060310 -0.090513 -0.013543
		CHANNELS 3 Zrotation Yrotation Xrotation
		JOINT rknee
		{
			OFFSET -0.043257 -0.383688 -0.004843
			CHANNELS 3 Zrotation Yrotation Xrotation
			JOINT rankle
			{
				OFFSET 0.019056 -0.420046 -0.034562
				CHANNELS 3 Zrotation Yrotation Xrotation
				JOINT rtoe
				{
					OFFSET -0.034840 -0.062106 0.130323
					CHANNELS 3 Zrotation Yrotation Xrotation
					End Site
					{
						OFFSET 0.000000 0.000000 0.000000
					}
				}
			}
		}
	}
	JOINT lowerback
	{
		OFFSET 0.004439 0.124404 -0.038385
		CHANNELS 3 Zrotation Yrotation Xrotation
		JOINT upperback
		{
			OFFSET 0.004488 0.137956 0.026820
			CHANNELS 3 Zrotation Yrotation Xrotation
			JOINT chest
			{
				OFFSET -0.002265 0.056032 0.002855
				CHANNELS 3 Zrotation Yrotation Xrotation
				JOINT lowerneck
				{
					OFFSET -0.013390 0.211636 -0.033468
					CHANNELS 3 Zrotation Yrotation Xrotation
					JOINT upperneck
					{
						OFFSET 0.010113 0.088937 0.050410
						CHANNELS 3 Zrotation Yrotation Xrotation
						End Site
						{
							OFFSET 0.000000 0.000000 0.000000
						}
					}
				}
				JOINT lclavicle
				{
					OFFSET 0.071702 0.114000 -0.018898
					CHANNELS 3 Zrotation Yrotation Xrotation
					JOINT lshoulder
					{
						OFFSET 0.122921 0.045205 -0.019046
						CHANNELS 3 Zrotation Yrotation Xrotation
						JOINT lelbow
						{
							OFFSET 0.255332 -0.015649 -0.022946
							CHANNELS 3 Zrotation Yrotation Xrotation
							JOINT lwrist
							{
								OFFSET 0.265709 0.012698 -0.007375
								CHANNELS 3 Zrotation Yrotation Xrotation
								End Site
								{
									OFFSET 0.000000 0.000000 0.000000
								}
							}
						}
					}
				}
				JOINT rclavicle
				{
					OFFSET -0.082954 0.112472 -0.023707
					CHANNELS 3 Zrotation Yrotation Xrotation
					JOINT rshoulder
					{
						OFFSET -0.113228 0.046853 -0.008472
						CHANNELS 3 Zrotation Yrotation Xrotation
						JOINT relbow
						{
							OFFSET -0.260127 -0.014369 -0.031269
							CHANNELS 3 Zrotation Yrotation Xrotation
							JOINT rwrist
							{
								OFFSET -0.269108 0.006794 -0.006027
								CHANNELS 3 Zrotation Yrotation Xrotation
								End Site
								{
									OFFSET 0.000000 0.000000 0.000000
								}
							}
						}
					}
				}
			}
		}
	}
}
MOTION
Frames: 5
Frame Time: 0.033333
-0.001437 0.250447 0.994562 -178.480385 0.908128 99.647776 1.648676 1.882348 -2.624903 2.054354 -5.491265 -8.794818 -3.574684 8.433890 -4.478535 0.000000 -0.000000 0.000000 -4.404466 -2.962567 -5.934347 -0.081589 0.075263 -0.073586 6.302206 -8.134954 -4.906055 0.000000 -0.000000 0.000000 -1.351733 0.935792 -6.281358 3.133517 -3.271049 0.806946 0.675428 -0.032187 -9.396457 -4.374566 0.362091 6.115993 3.748079 1.493891 -8.656800 -15.224359 8.888959 -9.499401 -33.798134 -9.935174 4.562215 35.150921 -36.120566 -37.272730 7.372220 -16.558038 -16.141515 12.587231 -6.547106 -5.142575 24.099240 4.290715 -1.045731 -28.085437 54.797939 -30.596866 -13.903666 18.786295 -17.638530 
0.002136 0.250646 0.994361 -178.209713 0.949258 99.137032 2.043875 1.921250 -2.143937 1.990581 -5.459062 -8.660051 -3.929435 8.041532 -4.514055 0.000000 -0.000000 0.000000 -4.232578 -2.904111 -5.281590 0.025151 -0.397035 -0.037807 6.402734 -7.654200 -5.149832 0.000000 -0.000000 0.000000 -1.265215 1.021109 -6.017738 3.096199 -3.208947 1.763953 0.621834 -0.349268 -8.757063 -4.081435 0.728708 5.431770 3.290236 0.694141 -10.051095 -16.394348 9.496605 -8.908624 -36.713912 -8.144575 4.779460 36.238500 -37.239963 -36.922901 5.258551 -17.178798 -14.030255 14.306977 -7.064135 -4.447758 26.536457 1.916927 -0.257928 -29.139415 57.285394 -28.857307 -12.080283 20.763884 -13.537271 
0.005993 0.250643 0.994778 -177.833584 0.989490 98.598733 2.469171 1.883036 -1.677440 1.884042 -5.418757 -8.351000 -4.103821 7.609771 -4.653722 0.000000 -0.000000 0.000000 -4.025150 -2.871787 -4.534533 0.125579 -0.897258 0.020084 6.298241 -7.378375 -5.412208 0.000000 -0.000000 0.000000 -1.263330 0.922863 -5.713459 3.189136 -3.295242 2.769014 0.653327 -0.445781 -8.415261 -3.926383 1.178883 4.839979 2.834797 0.013657 -11.084789 -16.982098 10.199742 -8.069783 -40.289268 -6.518499 5.125911 36.365226 -37.588396 -35.521322 2.758978 -18.110273 -12.690260 15.494983 -7.605064 -3.720237 29.588670 0.056308 0.469059 -28.802047 58.298711 -25.314836 -9.866380 22.162731 -9.017114 
0.010533 0.250219 0.995204 -177.235240 0.924420 98.149058 2.778424 1.785822 -1.446461 1.880040 -5.540878 -7.972919 -4.194228 7.141373 -4.685326 0.000000 -0.000000 0.000000 -3.857374 -2.837700 -4.018411 0.210454 -1.555984 0.311054 6.118269 -7.167382 -5.756667 0.000000 -0.000000 0.000000 -1.224221 0.892605 -5.367128 3.135454 -3.371145 3.737607 0.629891 -0.679292 -8.132599 -3.717685 1.428695 4.395718 2.247143 -0.528345 -12.047069 -17.804648 10.299388 -6.537117 -44.536472 -4.511118 5.482760 36.330979 -37.143057 -33.994517 0.467486 -19.080474 -11.739594 16.695271 -7.856059 -2.370332 33.566503 -2.233969 1.276204 -26.986632 57.925113 -19.995096 -7.286697 22.704275 -4.657436 
0.013158 0.250096 0.995259 -177.025065 0.922181 97.879585 2.990441 1.822497 -1.310498 1.838142 -5.618485 -7.702681 -4.288585 7.018212 -4.759293 0.000000 -0.000000 0.000000 -3.725949 -2.733570 -3.740998 0.267247 -1.755520 0.462907 6.012669 -7.151664 -5.927051 0.000000 -0.000000 0.000000 -1.210381 0.897254 -5.012084 3.148393 -3.246353 4.016625 0.559333 -0.612392 -7.784469 -3.656329 1.478637 4.085438 2.126575 -0.910137 -12.675252 -18.100833 10.730147 -5.948292 -47.165839 -4.124429 5.906979 35.067616 -36.412874 -32.186304 -0.164479 -19.422132 -11.871190 17.507057 -8.168584 -1.869277 35.982639 -3.239857 1.761685 -25.415908 56.571266 -16.415395 -6.494564 22.953909 -2.129440 
